D:\school\WTK\thesis\model\3dpredictsim\Results\Batchsim_tmt_linear\Pog_s1_tmt_bCst_d05_k800_ig24_act_GRF.mot
nRows=27
nColumns=19

name D:\school\WTK\thesis\model\3dpredictsim\Results\Batchsim_tmt_linear\Pog_s1_tmt_bCst_d05_k800_ig24_act_GRF.mot
datacolumns 19
datarows 27
range 0.0000000000 0.3199592302
endheader
time 	ground_force_vx	ground_force_vy	ground_force_vz	ground_force_px	ground_force_py	ground_force_pz	1_ground_force_vx	1_ground_force_vy	1_ground_force_vz	1_ground_force_px	1_ground_force_py	1_ground_force_pz	ground_torque_x	ground_torque_y	ground_torque_z	1_ground_torque_x	1_ground_torque_y	1_ground_torque_z
        0.0000000000	      -44.5411064149	       34.9610349854	       11.4619801221	        0.1912750292	        0.0000000000	        0.0516841541	      106.0830452460	      426.9387695383	       -0.2801468392	       -0.3574683157	        0.0000000000	       -0.0329067848	        0.0000000000	        0.0000000000	        0.0000000000	        0.0000000000	        0.0000000000	        0.0000000000	
        0.0123061242	     -117.2385125158	      121.1844142513	       44.6223934116	        0.1993570600	        0.0000000000	        0.0497282199	       71.3824122443	      324.0347645026	       -6.6411584806	       -0.3495518470	        0.0000000000	       -0.0296822676	        0.0000000000	        0.0000000000	        0.0000000000	        0.0000000000	        0.0000000000	        0.0000000000	
        0.0246122485	      -57.8781242814	      307.2230485439	       16.0363756478	        0.2048654019	        0.0000000000	        0.0477809016	       39.3299235322	      218.6251698878	      -12.8078087747	       -0.3361990291	        0.0000000000	       -0.0236995412	        0.0000000000	        0.0000000000	        0.0000000000	        0.0000000000	        0.0000000000	        0.0000000000	
        0.0369183727	      -56.9193891414	      517.0501346932	       -5.3571243585	        0.2080349212	        0.0000000000	        0.0476318512	       24.1633593478	      171.2059220763	      -13.4845390557	       -0.3306748741	        0.0000000000	       -0.0208165916	        0.0000000000	        0.0000000000	        0.0000000000	        0.0000000000	        0.0000000000	        0.0000000000	
        0.0492244970	     -103.7783342397	      737.9387415294	      -14.7459701426	        0.2168785748	        0.0000000000	        0.0496033559	       18.6647935428	      126.0427246876	      -16.2812407279	       -0.3303181995	        0.0000000000	       -0.0211278495	        0.0000000000	        0.0000000000	        0.0000000000	        0.0000000000	        0.0000000000	        0.0000000000	
        0.0615306212	     -137.9732406872	      883.9821217917	      -20.7185844880	        0.2249247155	        0.0000000000	        0.0514284696	        6.2442788971	       71.2838036011	      -15.5148859982	       -0.3303446290	        0.0000000000	       -0.0214944035	        0.0000000000	        0.0000000000	        0.0000000000	        0.0000000000	        0.0000000000	        0.0000000000	
        0.0738367454	     -144.7190628432	      914.6879683547	      -21.8157758114	        0.2301255602	        0.0000000000	        0.0524661377	       -7.2362426697	       13.1047943755	       -3.6204948249	       -0.3337697264	        0.0000000000	       -0.0211986317	        0.0000000000	        0.0000000000	        0.0000000000	        0.0000000000	        0.0000000000	        0.0000000000	
        0.0861428697	     -131.7689923209	      881.5984090848	      -21.4471804364	        0.2340033987	        0.0000000000	        0.0530632548	        0.0222957590	       -0.0187266251	       -0.0007290050	        0.0000000000	        0.0000000000	        0.0000000000	        0.0000000000	        0.0000000000	        0.0000000000	        0.0000000000	        0.0000000000	        0.0000000000	
        0.0984489939	     -114.9051138315	      823.2980585685	      -20.2197934506	        0.2377196235	        0.0000000000	        0.0533591487	        0.2973706559	       -0.2130475532	       -0.0192407320	        0.0000000000	        0.0000000000	        0.0000000000	        0.0000000000	        0.0000000000	        0.0000000000	        0.0000000000	        0.0000000000	        0.0000000000	
        0.1107551181	     -101.8009470793	      773.0712586074	      -18.6715523280	        0.2416173559	        0.0000000000	        0.0533893312	       -1.8177490920	        1.1455511105	        0.1422687891	        0.0000000000	        0.0000000000	        0.0000000000	        0.0000000000	        0.0000000000	        0.0000000000	        0.0000000000	        0.0000000000	        0.0000000000	
        0.1230612424	      -90.4722484745	      737.6086642734	      -18.0287907312	        0.2460428896	        0.0000000000	        0.0532261892	       -1.5852796171	        0.9109932465	        0.1281846464	        0.0000000000	        0.0000000000	        0.0000000000	        0.0000000000	        0.0000000000	        0.0000000000	        0.0000000000	        0.0000000000	        0.0000000000	
        0.1353673666	      -80.8729100738	      711.7044923405	      -18.5260456675	        0.2512304367	        0.0000000000	        0.0528182237	       -1.2400959593	        0.6648110239	        0.1025135463	        0.0000000000	        0.0000000000	        0.0000000000	        0.0000000000	        0.0000000000	        0.0000000000	        0.0000000000	        0.0000000000	        0.0000000000	
        0.1476734909	      -71.2376874214	      686.9992934013	      -19.3784038961	        0.2563830699	        0.0000000000	        0.0523948295	       -0.8089464458	        0.4136652313	        0.0647805559	        0.0000000000	        0.0000000000	        0.0000000000	        0.0000000000	        0.0000000000	        0.0000000000	        0.0000000000	        0.0000000000	        0.0000000000	
        0.1599796151	      -61.7989168797	      662.3509747724	      -20.1894755394	        0.2611950660	        0.0000000000	        0.0520758700	       -0.5370108274	        0.2638330645	        0.0423572993	        0.0000000000	        0.0000000000	        0.0000000000	        0.0000000000	        0.0000000000	        0.0000000000	        0.0000000000	        0.0000000000	        0.0000000000	
        0.1722857393	      -53.0052404119	      641.0858452605	      -20.5417768911	        0.2658863102	        0.0000000000	        0.0518428116	       -0.4012715224	        0.1906618892	        0.0315088156	        0.0000000000	        0.0000000000	        0.0000000000	        0.0000000000	        0.0000000000	        0.0000000000	        0.0000000000	        0.0000000000	        0.0000000000	
        0.1845918636	      -45.3916532368	      623.3039948765	      -21.1569332079	        0.2706216905	        0.0000000000	        0.0516386764	       -0.3422677032	        0.1581288187	        0.0268449202	        0.0000000000	        0.0000000000	        0.0000000000	        0.0000000000	        0.0000000000	        0.0000000000	        0.0000000000	        0.0000000000	        0.0000000000	
        0.1968979878	      -38.5494982169	      608.6491943314	      -21.0946791912	        0.2753621621	        0.0000000000	        0.0514573744	       -0.3296634578	        0.1486953209	        0.0256369408	        0.0000000000	        0.0000000000	        0.0000000000	        0.0000000000	        0.0000000000	        0.0000000000	        0.0000000000	        0.0000000000	        0.0000000000	
        0.2092041121	      -32.0440623540	      597.9181166711	      -21.0525872241	        0.2805429498	        0.0000000000	        0.0512194228	       -0.3535493921	        0.1560703601	        0.0272385607	        0.0000000000	        0.0000000000	        0.0000000000	        0.0000000000	        0.0000000000	        0.0000000000	        0.0000000000	        0.0000000000	        0.0000000000	
        0.2215102363	      -27.0971038823	      590.9546692367	      -20.7342106046	        0.2863518360	        0.0000000000	        0.0508759021	       -0.4188918133	        0.1811429203	        0.0318529151	        0.0000000000	        0.0000000000	        0.0000000000	        0.0000000000	        0.0000000000	        0.0000000000	        0.0000000000	        0.0000000000	        0.0000000000	
        0.2338163605	      -23.4884736707	      587.0572978513	      -20.1512271983	        0.2925540807	        0.0000000000	        0.0504295466	       -0.5339614875	        0.2264887213	        0.0397130378	        0.0000000000	        0.0000000000	        0.0000000000	        0.0000000000	        0.0000000000	        0.0000000000	        0.0000000000	        0.0000000000	        0.0000000000	
        0.2461224848	      -20.1588556176	      585.3789539976	      -19.4762831206	        0.2990373797	        0.0000000000	        0.0498899437	       -0.7059664144	        0.2942028945	        0.0508213235	        0.0000000000	        0.0000000000	        0.0000000000	        0.0000000000	        0.0000000000	        0.0000000000	        0.0000000000	        0.0000000000	        0.0000000000	
        0.2584286090	      -17.3305680385	      584.7099050399	      -18.9018135225	        0.3056487551	        0.0000000000	        0.0492782071	       -0.9321121485	        0.3823632527	        0.0643849791	        0.0000000000	        0.0000000000	        0.0000000000	        0.0000000000	        0.0000000000	        0.0000000000	        0.0000000000	        0.0000000000	        0.0000000000	
        0.2707347332	      -14.6905244646	      583.5976194244	      -18.8190978256	        0.3121738443	        0.0000000000	        0.0486354637	       -1.1936273780	        0.4829907715	        0.0790127829	        0.0000000000	        0.0000000000	        0.0000000000	        0.0000000000	        0.0000000000	        0.0000000000	        0.0000000000	        0.0000000000	        0.0000000000	
        0.2830408575	      -12.0357765208	      581.3853155564	      -18.8644138908	        0.3185875213	        0.0000000000	        0.0479794276	       -1.4509567667	        0.5803896148	        0.0919764424	        0.0000000000	        0.0000000000	        0.0000000000	        0.0000000000	        0.0000000000	        0.0000000000	        0.0000000000	        0.0000000000	        0.0000000000	
        0.2953469817	       -9.2910685242	      578.1090713795	      -18.8903626170	        0.3248776169	        0.0000000000	        0.0473178329	       -1.6580319323	        0.6569922051	        0.1007784149	        0.0000000000	        0.0000000000	        0.0000000000	        0.0000000000	        0.0000000000	        0.0000000000	        0.0000000000	        0.0000000000	        0.0000000000	
        0.3076531060	       -6.3074863783	      573.9849814942	      -18.5664487621	        0.3310329774	        0.0000000000	        0.0466566362	       -1.7861888930	        0.7023487156	        0.1035262720	        0.0000000000	        0.0000000000	        0.0000000000	        0.0000000000	        0.0000000000	        0.0000000000	        0.0000000000	        0.0000000000	        0.0000000000	
        0.3199592302	       -3.1233911460	      569.1180669925	      -17.4795754931	        0.3370669547	        0.0000000000	        0.0459952013	       -1.8380472014	        0.7179696468	        0.0996741565	        0.0000000000	        0.0000000000	        0.0000000000	        0.0000000000	        0.0000000000	        0.0000000000	        0.0000000000	        0.0000000000	        0.0000000000	
